<svg width="58" height="48" viewBox="0 0 58 48" fill="none" xmlns="http://www.w3.org/2000/svg">
<g clip-path="url(#clip0_1_2)">
<circle cx="7.88349" cy="13.142" r="2.62835" fill="black"/>
<circle cx="7.88349" cy="18.3979" r="2.62835" fill="black"/>
<circle cx="2.62835" cy="18.3979" r="2.62835" fill="black"/>
<circle cx="7.88349" cy="23.6549" r="2.62835" fill="black"/>
<circle cx="2.62835" cy="23.6549" r="2.62835" fill="black"/>
<circle cx="7.88349" cy="28.9119" r="2.62835" fill="black"/>
<circle cx="7.88349" cy="44.6816" r="2.62835" fill="black"/>
<circle cx="13.1434" cy="7.88564" r="2.62835" fill="black"/>
<circle cx="13.1434" cy="13.142" r="2.62835" fill="black"/>
<circle cx="13.1434" cy="18.3979" r="2.62835" fill="black"/>
<circle cx="13.1434" cy="23.6549" r="2.62835" fill="black"/>
<circle cx="13.1434" cy="28.9119" r="2.62835" fill="black"/>
<circle cx="13.1434" cy="39.4248" r="2.62835" fill="black"/>
<circle cx="18.3952" cy="7.88564" r="2.62835" fill="black"/>
<circle cx="18.3952" cy="13.142" r="2.62835" fill="black"/>
<circle cx="18.3952" cy="18.3979" r="2.62835" fill="black"/>
<circle cx="18.3952" cy="23.6549" r="2.62835" fill="black"/>
<circle cx="18.3952" cy="28.9119" r="2.62835" fill="black"/>
<circle cx="23.6575" cy="13.142" r="2.62835" fill="black"/>
<circle cx="23.6575" cy="18.3979" r="2.62835" fill="black"/>
<circle cx="23.6575" cy="23.6549" r="2.62835" fill="black"/>
<circle cx="23.6575" cy="28.9119" r="2.62835" fill="black"/>
<circle cx="23.6575" cy="44.6816" r="2.62835" fill="black"/>
<circle cx="28.9098" cy="7.88564" r="2.62835" fill="black"/>
<circle cx="28.9098" cy="13.142" r="2.62835" fill="black"/>
<circle cx="28.9098" cy="18.3979" r="2.62835" fill="black"/>
<circle cx="28.9098" cy="23.6549" r="2.62835" fill="black"/>
<circle cx="28.9098" cy="28.9119" r="2.62835" fill="black"/>
<circle cx="28.9098" cy="39.4248" r="2.62835" fill="black"/>
<circle cx="34.1721" cy="7.88564" r="2.62835" fill="black"/>
<circle cx="34.1721" cy="2.62835" r="2.62835" fill="black"/>
<circle cx="34.1721" cy="13.142" r="2.62835" fill="black"/>
<circle cx="34.1721" cy="18.3979" r="2.62835" fill="black"/>
<circle cx="34.1721" cy="23.6549" r="2.62835" fill="black"/>
<circle cx="34.1721" cy="28.9119" r="2.62835" fill="black"/>
<circle cx="39.4243" cy="7.88564" r="2.62835" fill="black"/>
<circle cx="39.4243" cy="2.62835" r="2.62835" fill="black"/>
<circle cx="39.4243" cy="13.142" r="2.62835" fill="black"/>
<circle cx="39.4243" cy="18.3979" r="2.62835" fill="black"/>
<circle cx="39.4243" cy="23.6549" r="2.62835" fill="black"/>
<circle cx="39.4243" cy="28.9119" r="2.62835" fill="black"/>
<circle cx="39.4243" cy="44.6816" r="2.62835" fill="black"/>
<circle cx="44.6828" cy="7.88564" r="2.62835" fill="black"/>
<circle cx="44.6828" cy="2.62835" r="2.62835" fill="black"/>
<circle cx="44.6828" cy="13.142" r="2.62835" fill="black"/>
<circle cx="44.6828" cy="18.3979" r="2.62835" fill="black"/>
<circle cx="44.6828" cy="23.6549" r="2.62835" fill="black"/>
<circle cx="44.6828" cy="28.9119" r="2.62835" fill="black"/>
<circle cx="44.6828" cy="39.4248" r="2.62835" fill="black"/>
<circle cx="49.9384" cy="7.88564" r="2.62835" fill="black"/>
<circle cx="49.9384" cy="13.142" r="2.62835" fill="black"/>
<circle cx="55.1936" cy="13.142" r="2.62835" fill="black"/>
<circle cx="49.9384" cy="18.3979" r="2.62835" fill="black"/>
<circle cx="55.1936" cy="18.3979" r="2.62835" fill="black"/>
<circle cx="49.9384" cy="23.6549" r="2.62835" fill="black"/>
<circle cx="55.1936" cy="23.6549" r="2.62835" fill="black"/>
<circle cx="49.9384" cy="28.9119" r="2.62835" fill="black"/>
</g>
<defs>
<clipPath id="clip0_1_2">
<rect width="57.8222" height="47.31" fill="white"/>
</clipPath>
</defs>
</svg>
